<svg width="40" height="40" viewBox="0 0 40 40" fill="none" xmlns="http://www.w3.org/2000/svg">
<path d="M14.5886 14.7157L14.6464 14.6464C14.82 14.4729 15.0894 14.4536 15.2843 14.5886L15.3536 14.6464L20 19.293L24.6464 14.6464C24.8417 14.4512 25.1583 14.4512 25.3536 14.6464C25.5488 14.8417 25.5488 15.1583 25.3536 15.3536L20.707 20L25.3536 24.6464C25.5271 24.82 25.5464 25.0894 25.4114 25.2843L25.3536 25.3536C25.18 25.5271 24.9106 25.5464 24.7157 25.4114L24.6464 25.3536L20 20.707L15.3536 25.3536C15.1583 25.5488 14.8417 25.5488 14.6464 25.3536C14.4512 25.1583 14.4512 24.8417 14.6464 24.6464L19.293 20L14.6464 15.3536C14.4729 15.18 14.4536 14.9106 14.5886 14.7157L14.6464 14.6464L14.5886 14.7157Z" fill="#424242"/>
</svg>
