<svg width="32" height="32" viewBox="0 0 32 32" fill="none" xmlns="http://www.w3.org/2000/svg">
<g clip-path="url(#clip0_13225_18700)">
<mask id="mask0_13225_18700" style="mask-type:luminance" maskUnits="userSpaceOnUse" x="6" y="6" width="20" height="20">
<path d="M7.91075 13.3827C8.28004 12.2405 8.88839 11.1921 9.69109 10.3036C9.82683 10.1534 10.0398 10.0998 10.2304 10.168L12.1487 10.8539C12.6688 11.0398 13.2411 10.7688 13.4269 10.2488C13.4452 10.1976 13.4593 10.1451 13.469 10.0917L13.8345 8.08573C13.8708 7.88627 14.024 7.7285 14.2223 7.6863C14.8025 7.5628 15.3973 7.5 16 7.5C16.6023 7.5 17.1968 7.56273 17.7767 7.68607C17.9749 7.72824 18.1281 7.88591 18.1645 8.08529L18.531 10.0916C18.6301 10.635 19.1509 10.9951 19.6942 10.896C19.7476 10.8863 19.8002 10.8722 19.8512 10.8539L21.7696 10.168C21.9602 10.0998 22.1732 10.1534 22.3089 10.3036C23.1116 11.1921 23.72 12.2405 24.0893 13.3827C24.1516 13.5753 24.0915 13.7866 23.9371 13.9176L22.3823 15.2377C21.9613 15.5952 21.9098 16.2263 22.2673 16.6473C22.3024 16.6887 22.3409 16.7271 22.3823 16.7623L23.9371 18.0824C24.0915 18.2134 24.1516 18.4247 24.0893 18.6173C23.72 19.7595 23.1116 20.8079 22.3089 21.6964C22.1732 21.8466 21.9602 21.9002 21.7696 21.832L19.8513 21.1461C19.3312 20.9602 18.759 21.2312 18.5731 21.7512C18.5548 21.8024 18.5408 21.8549 18.531 21.9085L18.1645 23.9147C18.1281 24.1141 17.9749 24.2718 17.7767 24.3139C17.1968 24.4373 16.6023 24.5 16 24.5C15.3973 24.5 14.8025 24.4372 14.2223 24.3137C14.024 24.2715 13.8708 24.1137 13.8345 23.9143L13.469 21.9084C13.3699 21.365 12.8492 21.0049 12.3058 21.104C12.2524 21.1137 12.1999 21.1278 12.1488 21.1461L10.2304 21.832C10.0398 21.9002 9.82683 21.8466 9.69109 21.6964C8.88839 20.8079 8.28004 19.7595 7.91075 18.6173C7.84845 18.4247 7.90852 18.2134 8.06289 18.0824L9.61773 16.7623C10.0387 16.4048 10.0902 15.7737 9.73274 15.3527C9.69759 15.3113 9.65913 15.2729 9.61775 15.2377L8.06289 13.9176C7.90852 13.7866 7.84845 13.5753 7.91075 13.3827ZM8.9713 13.3771L10.265 14.4755C10.3478 14.5458 10.4247 14.6227 10.495 14.7055C11.21 15.5475 11.107 16.8096 10.265 17.5246L8.9713 18.6229C9.26335 19.4051 9.6848 20.1322 10.2162 20.7751L11.8122 20.2044C11.9145 20.1679 12.0196 20.1397 12.1264 20.1202C13.2131 19.922 14.2546 20.6423 14.4528 21.729L14.7568 23.3975C15.1646 23.4655 15.58 23.5 16 23.5C16.4197 23.5 16.8348 23.4656 17.2424 23.3976L17.5472 21.7289C17.5667 21.6221 17.5949 21.517 17.6314 21.4147C18.0031 20.3746 19.1477 19.8327 20.1879 20.2044L21.7838 20.7751C22.3152 20.1322 22.7367 19.4051 23.0287 18.6229L21.735 17.5245C21.6522 17.4542 21.5753 17.3773 21.505 17.2945C20.7901 16.4525 20.8931 15.1904 21.7351 14.4754L23.0287 13.3771C22.7367 12.5949 22.3152 11.8678 21.7838 11.2249L20.1878 11.7956C20.0855 11.8321 19.9804 11.8603 19.8736 11.8798C18.787 12.078 17.7454 11.3577 17.5473 10.2712L17.2424 8.60235C16.8348 8.53443 16.4197 8.5 16 8.5C15.58 8.5 15.1646 8.53448 14.7568 8.60249L14.4528 10.2711C14.4333 10.3779 14.4051 10.483 14.3686 10.5853C13.9969 11.6254 12.8524 12.1673 11.8121 11.7956L10.2162 11.2249C9.6848 11.8678 9.26335 12.5949 8.9713 13.3771ZM13.5 16C13.5 14.6193 14.6193 13.5 16 13.5C17.3807 13.5 18.5 14.6193 18.5 16C18.5 17.3807 17.3807 18.5 16 18.5C14.6193 18.5 13.5 17.3807 13.5 16ZM14.5 16C14.5 16.8284 15.1716 17.5 16 17.5C16.8284 17.5 17.5 16.8284 17.5 16C17.5 15.1716 16.8284 14.5 16 14.5C15.1716 14.5 14.5 15.1716 14.5 16Z" fill="white"/>
</mask>
<g mask="url(#mask0_13225_18700)">
<rect x="6" y="6" width="20" height="20" fill="#242424"/>
</g>
</g>
<defs>
<clipPath id="clip0_13225_18700">
<rect width="32" height="32" rx="4" fill="white"/>
</clipPath>
</defs>
</svg>
