<svg width="32" height="32" viewBox="0 0 32 32" fill="none" xmlns="http://www.w3.org/2000/svg">
<g clip-path="url(#clip0_13225_18691)">
<mask id="mask0_13225_18691" style="mask-type:luminance" maskUnits="userSpaceOnUse" x="6" y="6" width="20" height="20">
<path d="M13.5 19H18.5C18.7761 19 19 19.2239 19 19.5C19 19.7455 18.8231 19.9496 18.5899 19.9919L18.5 20H13.5C13.2239 20 13 19.7761 13 19.5C13 19.2545 13.1769 19.0504 13.4101 19.0081L13.5 19H18.5H13.5ZM11.5 15H20.5C20.7761 15 21 15.2239 21 15.5C21 15.7455 20.8231 15.9496 20.5899 15.9919L20.5 16H11.5C11.2239 16 11 15.7761 11 15.5C11 15.2545 11.1769 15.0504 11.4101 15.0081L11.5 15H20.5H11.5ZM9.5 11H22.5C22.7761 11 23 11.2239 23 11.5C23 11.7455 22.8231 11.9496 22.5899 11.9919L22.5 12H9.5C9.22386 12 9 11.7761 9 11.5C9 11.2545 9.17688 11.0504 9.41012 11.0081L9.5 11H22.5H9.5Z" fill="white"/>
</mask>
<g mask="url(#mask0_13225_18691)">
<rect x="6" y="6" width="20" height="20" fill="#242424"/>
</g>
</g>
<defs>
<clipPath id="clip0_13225_18691">
<rect width="32" height="32" rx="4" fill="white"/>
</clipPath>
</defs>
</svg>
