<svg width="32" height="32" viewBox="0 0 32 32" fill="none" xmlns="http://www.w3.org/2000/svg">
<path d="M12.25 16C12.25 16.6904 11.6904 17.25 11 17.25C10.3096 17.25 9.75 16.6904 9.75 16C9.75 15.3096 10.3096 14.75 11 14.75C11.6904 14.75 12.25 15.3096 12.25 16ZM17.25 16C17.25 16.6904 16.6904 17.25 16 17.25C15.3096 17.25 14.75 16.6904 14.75 16C14.75 15.3096 15.3096 14.75 16 14.75C16.6904 14.75 17.25 15.3096 17.25 16ZM21 17.25C21.6904 17.25 22.25 16.6904 22.25 16C22.25 15.3096 21.6904 14.75 21 14.75C20.3096 14.75 19.75 15.3096 19.75 16C19.75 16.6904 20.3096 17.25 21 17.25Z" fill="#424242"/>
</svg>
