<svg width="68" height="56" viewBox="0 0 68 56" fill="none" xmlns="http://www.w3.org/2000/svg">
<mask id="mask0_13225_18631" style="mask-type:luminance" maskUnits="userSpaceOnUse" x="22" y="9" width="24" height="24">
<path d="M40.5 29C40.5 29.275 40.276 29.5 40 29.5H28C27.724 29.5 27.5 29.275 27.5 29V13C27.5 12.725 27.724 12.5 28 12.5H34V17C34 18.104 34.896 19 36 19H40.5V29ZM35.5 13.621L39.378 17.5H36C35.724 17.5 35.5 17.275 35.5 17V13.621ZM41.414 17.414L35.585 11.586C35.559 11.56 35.527 11.54 35.5 11.516C35.429 11.452 35.359 11.389 35.281 11.336C35.241 11.309 35.195 11.291 35.153 11.268C35.082 11.228 35.012 11.184 34.937 11.152C34.74 11.07 34.528 11.029 34.313 11.014C34.266 11.011 34.22 11 34.172 11H34.171H34H28C26.896 11 26 11.896 26 13V29C26 30.104 26.896 31 28 31H40C41.104 31 42 30.104 42 29V19V18.828C42 18.298 41.789 17.789 41.414 17.414Z" fill="white"/>
</mask>
<g mask="url(#mask0_13225_18631)">
<rect x="22" y="9" width="24" height="24" fill="#616161"/>
</g>
<path d="M28.8682 38.7402H26.1338V41.1621H28.6631V41.8994H26.1338V45H25.3135V37.998H28.8682V38.7402ZM30.499 38.7305C30.3558 38.7305 30.2337 38.6816 30.1328 38.584C30.0319 38.4863 29.9814 38.3626 29.9814 38.2129C29.9814 38.0632 30.0319 37.9395 30.1328 37.8418C30.2337 37.7409 30.3558 37.6904 30.499 37.6904C30.6455 37.6904 30.7692 37.7409 30.8701 37.8418C30.9743 37.9395 31.0264 38.0632 31.0264 38.2129C31.0264 38.3561 30.9743 38.4782 30.8701 38.5791C30.7692 38.68 30.6455 38.7305 30.499 38.7305ZM30.8896 45H30.0889V40H30.8896V45ZM33.3115 45H32.5107V37.5977H33.3115V45ZM38.9512 42.7002H35.4209C35.4339 43.2568 35.5837 43.6865 35.8701 43.9893C36.1566 44.292 36.5505 44.4434 37.0518 44.4434C37.6149 44.4434 38.1325 44.2578 38.6045 43.8867V44.6387C38.165 44.9577 37.584 45.1172 36.8613 45.1172C36.1549 45.1172 35.5999 44.891 35.1963 44.4385C34.7926 43.9827 34.5908 43.3431 34.5908 42.5195C34.5908 41.7415 34.8105 41.1084 35.25 40.6201C35.6927 40.1286 36.2412 39.8828 36.8955 39.8828C37.5498 39.8828 38.056 40.0944 38.4141 40.5176C38.7721 40.9408 38.9512 41.5283 38.9512 42.2803V42.7002ZM38.1309 42.0215C38.1276 41.5592 38.0153 41.1995 37.7939 40.9424C37.5758 40.6852 37.2715 40.5566 36.8809 40.5566C36.5033 40.5566 36.1826 40.6917 35.9189 40.9619C35.6553 41.2321 35.4925 41.5853 35.4307 42.0215H38.1309ZM39.8643 44.8193V43.96C40.3005 44.2822 40.7806 44.4434 41.3047 44.4434C42.0078 44.4434 42.3594 44.209 42.3594 43.7402C42.3594 43.6068 42.3285 43.4945 42.2666 43.4033C42.208 43.3089 42.1266 43.2259 42.0225 43.1543C41.9215 43.0827 41.8011 43.0192 41.6611 42.9639C41.5244 42.9053 41.3763 42.8451 41.2168 42.7832C40.9954 42.6953 40.8001 42.6074 40.6309 42.5195C40.4648 42.4284 40.3249 42.3275 40.2109 42.2168C40.1003 42.1029 40.0156 41.9743 39.957 41.8311C39.9017 41.6878 39.874 41.5202 39.874 41.3281C39.874 41.0938 39.9277 40.887 40.0352 40.708C40.1426 40.5257 40.2858 40.3743 40.4648 40.2539C40.6439 40.1302 40.8473 40.0374 41.0752 39.9756C41.3063 39.9137 41.5439 39.8828 41.7881 39.8828C42.221 39.8828 42.6084 39.9577 42.9502 40.1074V40.918C42.5824 40.6771 42.1592 40.5566 41.6807 40.5566C41.5309 40.5566 41.3958 40.5745 41.2754 40.6104C41.1549 40.6429 41.0508 40.6901 40.9629 40.752C40.8783 40.8138 40.8115 40.8887 40.7627 40.9766C40.7171 41.0612 40.6943 41.1556 40.6943 41.2598C40.6943 41.39 40.7171 41.499 40.7627 41.5869C40.8115 41.6748 40.8815 41.7529 40.9727 41.8213C41.0638 41.8896 41.1745 41.9515 41.3047 42.0068C41.4349 42.0622 41.583 42.1224 41.749 42.1875C41.9704 42.2721 42.1689 42.36 42.3447 42.4512C42.5205 42.5391 42.6702 42.64 42.7939 42.7539C42.9176 42.8646 43.012 42.9932 43.0771 43.1396C43.1455 43.2861 43.1797 43.4603 43.1797 43.6621C43.1797 43.9095 43.1243 44.1243 43.0137 44.3066C42.9062 44.4889 42.7614 44.6403 42.5791 44.7607C42.3968 44.8812 42.1868 44.9707 41.9492 45.0293C41.7116 45.0879 41.4626 45.1172 41.2021 45.1172C40.6878 45.1172 40.2419 45.0179 39.8643 44.8193Z" fill="#616161"/>
</svg>
