<svg width="68" height="56" viewBox="0 0 68 56" fill="none" xmlns="http://www.w3.org/2000/svg">
<mask id="mask0_13225_18601" style="mask-type:luminance" maskUnits="userSpaceOnUse" x="22" y="9" width="24" height="24">
<path d="M36.754 19C37.7205 19 38.504 19.7835 38.504 20.75V25.499C38.504 27.9848 36.4888 30 34.003 30C31.5171 30 29.5019 27.9848 29.5019 25.499V20.75C29.5019 19.7835 30.2854 19 31.2519 19H36.754ZM36.754 20.5H31.2519C31.1139 20.5 31.0019 20.6119 31.0019 20.75V25.499C31.0019 27.1564 32.3455 28.5 34.003 28.5C35.6604 28.5 37.004 27.1564 37.004 25.499V20.75C37.004 20.6119 36.8921 20.5 36.754 20.5ZM25.75 19L29.1313 18.9991C28.7879 19.4145 28.5642 19.9325 28.5131 20.5002L25.75 20.5C25.6119 20.5 25.5 20.6119 25.5 20.75V23.9988C25.5 25.3802 26.6198 26.5 28.0012 26.5C28.2012 26.5 28.3957 26.4765 28.5822 26.4322C28.6669 26.9361 28.8216 27.4167 29.0349 27.864C28.7058 27.953 28.359 28 28.0012 28C25.7914 28 24 26.2086 24 23.9988V20.75C24 19.7835 24.7835 19 25.75 19ZM38.8747 18.9991L42.25 19C43.2165 19 44 19.7835 44 20.75V24C44 26.2091 42.2091 28 40 28C39.6436 28 39.298 27.9534 38.9691 27.8659C39.184 27.4177 39.3388 26.9371 39.425 26.4331C39.6092 26.477 39.8019 26.5 40 26.5C41.3807 26.5 42.5 25.3807 42.5 24V20.75C42.5 20.6119 42.3881 20.5 42.25 20.5L39.4928 20.5002C39.4417 19.9325 39.218 19.4145 38.8747 18.9991ZM34 12C35.6569 12 37 13.3431 37 15C37 16.6569 35.6569 18 34 18C32.3431 18 31 16.6569 31 15C31 13.3431 32.3431 12 34 12ZM40.5 13C41.8807 13 43 14.1193 43 15.5C43 16.8807 41.8807 18 40.5 18C39.1193 18 38 16.8807 38 15.5C38 14.1193 39.1193 13 40.5 13ZM27.5 13C28.8807 13 30 14.1193 30 15.5C30 16.8807 28.8807 18 27.5 18C26.1193 18 25 16.8807 25 15.5C25 14.1193 26.1193 13 27.5 13ZM34 13.5C33.1716 13.5 32.5 14.1716 32.5 15C32.5 15.8284 33.1716 16.5 34 16.5C34.8284 16.5 35.5 15.8284 35.5 15C35.5 14.1716 34.8284 13.5 34 13.5ZM40.5 14.5C39.9477 14.5 39.5 14.9477 39.5 15.5C39.5 16.0523 39.9477 16.5 40.5 16.5C41.0523 16.5 41.5 16.0523 41.5 15.5C41.5 14.9477 41.0523 14.5 40.5 14.5ZM27.5 14.5C26.9477 14.5 26.5 14.9477 26.5 15.5C26.5 16.0523 26.9477 16.5 27.5 16.5C28.0523 16.5 28.5 16.0523 28.5 15.5C28.5 14.9477 28.0523 14.5 27.5 14.5Z" fill="white"/>
</mask>
<g mask="url(#mask0_13225_18601)">
<rect x="22" y="9" width="24" height="24" fill="#616161"/>
</g>
<path d="M25.333 38.7402H23.3115V45H22.4912V38.7402H20.4746V37.998H25.333V38.7402ZM29.3711 42.7002H25.8408C25.8538 43.2568 26.0036 43.6865 26.29 43.9893C26.5765 44.292 26.9704 44.4434 27.4717 44.4434C28.0348 44.4434 28.5524 44.2578 29.0244 43.8867V44.6387C28.585 44.9577 28.0039 45.1172 27.2812 45.1172C26.5749 45.1172 26.0199 44.891 25.6162 44.4385C25.2126 43.9827 25.0107 43.3431 25.0107 42.5195C25.0107 41.7415 25.2305 41.1084 25.6699 40.6201C26.1126 40.1286 26.6611 39.8828 27.3154 39.8828C27.9697 39.8828 28.4759 40.0944 28.834 40.5176C29.1921 40.9408 29.3711 41.5283 29.3711 42.2803V42.7002ZM28.5508 42.0215C28.5475 41.5592 28.4352 41.1995 28.2139 40.9424C27.9958 40.6852 27.6914 40.5566 27.3008 40.5566C26.9232 40.5566 26.6025 40.6917 26.3389 40.9619C26.0752 41.2321 25.9124 41.5853 25.8506 42.0215H28.5508ZM34.166 45H33.3652V44.2188H33.3457C32.9974 44.8177 32.4847 45.1172 31.8076 45.1172C31.3096 45.1172 30.9189 44.9854 30.6357 44.7217C30.3558 44.458 30.2158 44.1081 30.2158 43.6719C30.2158 42.7376 30.766 42.194 31.8662 42.041L33.3652 41.8311C33.3652 40.9814 33.0218 40.5566 32.335 40.5566C31.7327 40.5566 31.1891 40.7617 30.7041 41.1719V40.3516C31.1956 40.0391 31.762 39.8828 32.4033 39.8828C33.5785 39.8828 34.166 40.5046 34.166 41.748V45ZM33.3652 42.4707L32.1592 42.6367C31.7881 42.6888 31.5081 42.7816 31.3193 42.915C31.1305 43.0452 31.0361 43.278 31.0361 43.6133C31.0361 43.8574 31.1224 44.0576 31.2949 44.2139C31.4707 44.3669 31.7035 44.4434 31.9932 44.4434C32.3903 44.4434 32.7174 44.305 32.9746 44.0283C33.235 43.7484 33.3652 43.3952 33.3652 42.9688V42.4707ZM42.7744 45H41.9736V42.1289C41.9736 41.5755 41.8874 41.1751 41.7148 40.9277C41.5456 40.6803 41.2591 40.5566 40.8555 40.5566C40.5137 40.5566 40.2223 40.7129 39.9814 41.0254C39.7438 41.3379 39.625 41.7122 39.625 42.1484V45H38.8242V42.0312C38.8242 41.0482 38.445 40.5566 37.6865 40.5566C37.335 40.5566 37.0452 40.7048 36.8174 41.001C36.5895 41.2939 36.4756 41.6764 36.4756 42.1484V45H35.6748V40H36.4756V40.791H36.4951C36.8499 40.1855 37.3675 39.8828 38.0479 39.8828C38.3896 39.8828 38.6875 39.9788 38.9414 40.1709C39.1953 40.3597 39.3695 40.6087 39.4639 40.918C39.835 40.2279 40.3883 39.8828 41.124 39.8828C42.2243 39.8828 42.7744 40.5615 42.7744 41.9189V45ZM43.9854 44.8193V43.96C44.4215 44.2822 44.9017 44.4434 45.4258 44.4434C46.1289 44.4434 46.4805 44.209 46.4805 43.7402C46.4805 43.6068 46.4495 43.4945 46.3877 43.4033C46.3291 43.3089 46.2477 43.2259 46.1436 43.1543C46.0426 43.0827 45.9222 43.0192 45.7822 42.9639C45.6455 42.9053 45.4974 42.8451 45.3379 42.7832C45.1165 42.6953 44.9212 42.6074 44.752 42.5195C44.5859 42.4284 44.446 42.3275 44.332 42.2168C44.2214 42.1029 44.1367 41.9743 44.0781 41.8311C44.0228 41.6878 43.9951 41.5202 43.9951 41.3281C43.9951 41.0938 44.0488 40.887 44.1562 40.708C44.2637 40.5257 44.4069 40.3743 44.5859 40.2539C44.765 40.1302 44.9684 40.0374 45.1963 39.9756C45.4274 39.9137 45.665 39.8828 45.9092 39.8828C46.3421 39.8828 46.7295 39.9577 47.0713 40.1074V40.918C46.7035 40.6771 46.2803 40.5566 45.8018 40.5566C45.652 40.5566 45.5169 40.5745 45.3965 40.6104C45.276 40.6429 45.1719 40.6901 45.084 40.752C44.9993 40.8138 44.9326 40.8887 44.8838 40.9766C44.8382 41.0612 44.8154 41.1556 44.8154 41.2598C44.8154 41.39 44.8382 41.499 44.8838 41.5869C44.9326 41.6748 45.0026 41.7529 45.0938 41.8213C45.1849 41.8896 45.2956 41.9515 45.4258 42.0068C45.556 42.0622 45.7041 42.1224 45.8701 42.1875C46.0915 42.2721 46.29 42.36 46.4658 42.4512C46.6416 42.5391 46.7913 42.64 46.915 42.7539C47.0387 42.8646 47.1331 42.9932 47.1982 43.1396C47.2666 43.2861 47.3008 43.4603 47.3008 43.6621C47.3008 43.9095 47.2454 44.1243 47.1348 44.3066C47.0273 44.4889 46.8825 44.6403 46.7002 44.7607C46.5179 44.8812 46.3079 44.9707 46.0703 45.0293C45.8327 45.0879 45.5837 45.1172 45.3232 45.1172C44.8089 45.1172 44.363 45.0179 43.9854 44.8193Z" fill="#616161"/>
</svg>
