<svg width="68" height="56" viewBox="0 0 68 56" fill="none" xmlns="http://www.w3.org/2000/svg">
<mask id="mask0_13225_18621" style="mask-type:luminance" maskUnits="userSpaceOnUse" x="22" y="9" width="24" height="24">
<path d="M29.0566 11.418L30.2236 11.0663C31.5461 10.6676 32.9591 11.3119 33.5254 12.5717L34.4271 14.5774C34.9098 15.6512 34.6554 16.9132 33.7944 17.7162L32.3001 19.1096C32.2564 19.1504 32.2288 19.2054 32.2221 19.2647C32.1778 19.6619 32.447 20.4353 33.0673 21.5096C33.5183 22.2909 33.9266 22.8387 34.2741 23.1469C34.5162 23.3616 34.6494 23.408 34.7062 23.3911L36.7165 22.7765C37.8421 22.4323 39.0619 22.8427 39.7506 23.7972L41.0313 25.5722C41.8374 26.6894 41.6925 28.2307 40.6922 29.178L39.8058 30.0174C38.8494 30.9232 37.4879 31.2607 36.2191 30.9066C33.465 30.1378 30.9957 27.8137 28.7838 23.9826C26.5689 20.1462 25.7917 16.8418 26.5082 14.07C26.836 12.8015 27.8022 11.7961 29.0566 11.418ZM29.4895 12.8542C28.7368 13.0811 28.1571 13.6843 27.9604 14.4454C27.3578 16.7769 28.0466 19.7058 30.0829 23.2326C32.1164 26.7548 34.3054 28.8151 36.6224 29.4618C37.3836 29.6743 38.2006 29.4718 38.7744 28.9283L39.6608 28.0889C40.1154 27.6583 40.1813 26.9577 39.8149 26.4499L38.5342 24.6749C38.2211 24.241 37.6667 24.0545 37.155 24.2109L35.1397 24.8271C33.97 25.1757 32.9083 24.2343 31.7682 22.2596C30.9999 20.9289 30.6418 19.9002 30.7314 19.0982C30.7778 18.6828 30.9714 18.2977 31.2771 18.0126L32.7714 16.6192C33.1628 16.2542 33.2784 15.6805 33.059 15.1924L32.1573 13.1867C31.8999 12.6141 31.2576 12.3212 30.6565 12.5024L29.4895 12.8542Z" fill="white"/>
</mask>
<g mask="url(#mask0_13225_18621)">
<rect x="22" y="9" width="24" height="24" fill="#616161"/>
</g>
<path d="M29.498 44.707C28.9805 44.9805 28.3359 45.1172 27.5645 45.1172C26.5684 45.1172 25.7708 44.7965 25.1719 44.1553C24.5729 43.514 24.2734 42.6725 24.2734 41.6309C24.2734 40.5111 24.6104 39.6061 25.2842 38.916C25.958 38.2259 26.8125 37.8809 27.8477 37.8809C28.5117 37.8809 29.0618 37.9769 29.498 38.1689V39.043C28.9967 38.763 28.4434 38.623 27.8379 38.623C27.0339 38.623 26.3812 38.8916 25.8799 39.4287C25.3818 39.9658 25.1328 40.6836 25.1328 41.582C25.1328 42.4349 25.3656 43.1152 25.8311 43.623C26.2998 44.1276 26.9134 44.3799 27.6719 44.3799C28.375 44.3799 28.9837 44.2236 29.498 43.9111V44.707ZM34.3955 45H33.5947V44.2188H33.5752C33.2269 44.8177 32.7142 45.1172 32.0371 45.1172C31.5391 45.1172 31.1484 44.9854 30.8652 44.7217C30.5853 44.458 30.4453 44.1081 30.4453 43.6719C30.4453 42.7376 30.9954 42.194 32.0957 42.041L33.5947 41.8311C33.5947 40.9814 33.2513 40.5566 32.5645 40.5566C31.9622 40.5566 31.4186 40.7617 30.9336 41.1719V40.3516C31.4251 40.0391 31.9915 39.8828 32.6328 39.8828C33.8079 39.8828 34.3955 40.5046 34.3955 41.748V45ZM33.5947 42.4707L32.3887 42.6367C32.0176 42.6888 31.7376 42.7816 31.5488 42.915C31.36 43.0452 31.2656 43.278 31.2656 43.6133C31.2656 43.8574 31.3519 44.0576 31.5244 44.2139C31.7002 44.3669 31.9329 44.4434 32.2227 44.4434C32.6198 44.4434 32.9469 44.305 33.2041 44.0283C33.4645 43.7484 33.5947 43.3952 33.5947 42.9688V42.4707ZM36.7051 45H35.9043V37.5977H36.7051V45ZM39.127 45H38.3262V37.5977H39.127V45ZM40.4453 44.8193V43.96C40.8815 44.2822 41.3617 44.4434 41.8857 44.4434C42.5889 44.4434 42.9404 44.209 42.9404 43.7402C42.9404 43.6068 42.9095 43.4945 42.8477 43.4033C42.7891 43.3089 42.7077 43.2259 42.6035 43.1543C42.5026 43.0827 42.3822 43.0192 42.2422 42.9639C42.1055 42.9053 41.9574 42.8451 41.7979 42.7832C41.5765 42.6953 41.3812 42.6074 41.2119 42.5195C41.0459 42.4284 40.9059 42.3275 40.792 42.2168C40.6813 42.1029 40.5967 41.9743 40.5381 41.8311C40.4827 41.6878 40.4551 41.5202 40.4551 41.3281C40.4551 41.0938 40.5088 40.887 40.6162 40.708C40.7236 40.5257 40.8669 40.3743 41.0459 40.2539C41.2249 40.1302 41.4284 40.0374 41.6562 39.9756C41.8874 39.9137 42.125 39.8828 42.3691 39.8828C42.8021 39.8828 43.1895 39.9577 43.5312 40.1074V40.918C43.1634 40.6771 42.7402 40.5566 42.2617 40.5566C42.112 40.5566 41.9769 40.5745 41.8564 40.6104C41.736 40.6429 41.6318 40.6901 41.5439 40.752C41.4593 40.8138 41.3926 40.8887 41.3438 40.9766C41.2982 41.0612 41.2754 41.1556 41.2754 41.2598C41.2754 41.39 41.2982 41.499 41.3438 41.5869C41.3926 41.6748 41.4626 41.7529 41.5537 41.8213C41.6449 41.8896 41.7555 41.9515 41.8857 42.0068C42.016 42.0622 42.1641 42.1224 42.3301 42.1875C42.5514 42.2721 42.75 42.36 42.9258 42.4512C43.1016 42.5391 43.2513 42.64 43.375 42.7539C43.4987 42.8646 43.5931 42.9932 43.6582 43.1396C43.7266 43.2861 43.7607 43.4603 43.7607 43.6621C43.7607 43.9095 43.7054 44.1243 43.5947 44.3066C43.4873 44.4889 43.3424 44.6403 43.1602 44.7607C42.9779 44.8812 42.7679 44.9707 42.5303 45.0293C42.2926 45.0879 42.0436 45.1172 41.7832 45.1172C41.2689 45.1172 40.8229 45.0179 40.4453 44.8193Z" fill="#616161"/>
</svg>
