<svg width="68" height="56" viewBox="0 0 68 56" fill="none" xmlns="http://www.w3.org/2000/svg">
<mask id="mask0_13225_18590" style="mask-type:luminance" maskUnits="userSpaceOnUse" x="22" y="9" width="24" height="24">
<path d="M34 11C39.5228 11 44 15.4772 44 21C44 26.5228 39.5228 31 34 31C32.3817 31 30.8178 30.6146 29.4129 29.888L25.587 30.9553C24.9221 31.141 24.2326 30.7525 24.0469 30.0876C23.9855 29.8676 23.9855 29.6349 24.0469 29.4151L25.1146 25.5922C24.3864 24.186 24 22.6203 24 21C24 15.4772 28.4772 11 34 11ZM34 12.5C29.3056 12.5 25.5 16.3056 25.5 21C25.5 22.4696 25.8728 23.8834 26.573 25.1375L26.7237 25.4072L25.611 29.3914L29.5976 28.2792L29.8671 28.4295C31.1201 29.1281 32.5322 29.5 34 29.5C38.6944 29.5 42.5 25.6944 42.5 21C42.5 16.3056 38.6944 12.5 34 12.5ZM30.75 22H35.2483C35.6625 22 35.9983 22.3358 35.9983 22.75C35.9983 23.1297 35.7161 23.4435 35.35 23.4932L35.2483 23.5H30.75C30.3358 23.5 30 23.1642 30 22.75C30 22.3703 30.2822 22.0565 30.6482 22.0068L30.75 22H35.2483H30.75ZM30.75 18.5H37.2545C37.6687 18.5 38.0045 18.8358 38.0045 19.25C38.0045 19.6297 37.7223 19.9435 37.3563 19.9932L37.2545 20H30.75C30.3358 20 30 19.6642 30 19.25C30 18.8703 30.2822 18.5565 30.6482 18.5068L30.75 18.5H37.2545H30.75Z" fill="white"/>
</mask>
<g mask="url(#mask0_13225_18590)">
<rect x="22" y="9" width="24" height="24" fill="#616161"/>
</g>
<path d="M29.5176 44.707C29 44.9805 28.3555 45.1172 27.584 45.1172C26.5879 45.1172 25.7904 44.7965 25.1914 44.1553C24.5924 43.514 24.293 42.6725 24.293 41.6309C24.293 40.5111 24.6299 39.6061 25.3037 38.916C25.9775 38.2259 26.832 37.8809 27.8672 37.8809C28.5312 37.8809 29.0814 37.9769 29.5176 38.1689V39.043C29.0163 38.763 28.4629 38.623 27.8574 38.623C27.0534 38.623 26.4007 38.8916 25.8994 39.4287C25.4014 39.9658 25.1523 40.6836 25.1523 41.582C25.1523 42.4349 25.3851 43.1152 25.8506 43.623C26.3193 44.1276 26.9329 44.3799 27.6914 44.3799C28.3945 44.3799 29.0033 44.2236 29.5176 43.9111V44.707ZM34.9863 45H34.1855V42.1191C34.1855 41.0775 33.7982 40.5566 33.0234 40.5566C32.6328 40.5566 32.304 40.708 32.0371 41.0107C31.7702 41.3102 31.6367 41.696 31.6367 42.168V45H30.8359V37.5977H31.6367V40.8301H31.6562C32.0404 40.1986 32.5872 39.8828 33.2969 39.8828C34.4232 39.8828 34.9863 40.5615 34.9863 41.9189V45ZM40.0791 45H39.2783V44.2188H39.2588C38.9105 44.8177 38.3978 45.1172 37.7207 45.1172C37.2227 45.1172 36.832 44.9854 36.5488 44.7217C36.2689 44.458 36.1289 44.1081 36.1289 43.6719C36.1289 42.7376 36.679 42.194 37.7793 42.041L39.2783 41.8311C39.2783 40.9814 38.9349 40.5566 38.248 40.5566C37.6458 40.5566 37.1022 40.7617 36.6172 41.1719V40.3516C37.1087 40.0391 37.6751 39.8828 38.3164 39.8828C39.4915 39.8828 40.0791 40.5046 40.0791 41.748V45ZM39.2783 42.4707L38.0723 42.6367C37.7012 42.6888 37.4212 42.7816 37.2324 42.915C37.0436 43.0452 36.9492 43.278 36.9492 43.6133C36.9492 43.8574 37.0355 44.0576 37.208 44.2139C37.3838 44.3669 37.6165 44.4434 37.9062 44.4434C38.3034 44.4434 38.6305 44.305 38.8877 44.0283C39.1481 43.7484 39.2783 43.3952 39.2783 42.9688V42.4707ZM43.9072 44.9512C43.7184 45.0553 43.4694 45.1074 43.1602 45.1074C42.2845 45.1074 41.8467 44.6191 41.8467 43.6426V40.6836H40.9873V40H41.8467V38.7793L42.6475 38.5205V40H43.9072V40.6836H42.6475V43.501C42.6475 43.8363 42.7044 44.0755 42.8184 44.2188C42.9323 44.362 43.1211 44.4336 43.3848 44.4336C43.5866 44.4336 43.7607 44.3783 43.9072 44.2676V44.9512Z" fill="#616161"/>
<rect x="33.5" y="3.5" width="17" height="17" rx="8.5" fill="#CC4A31"/>
<rect x="33.5" y="3.5" width="17" height="17" rx="8.5" stroke="#EBEBEB"/>
<path d="M43.1865 8.8418V16H41.6484V10.5801C41.5638 10.6549 41.4629 10.7266 41.3457 10.7949C41.2318 10.86 41.1097 10.9202 40.9795 10.9756C40.8493 11.0277 40.7142 11.0732 40.5742 11.1123C40.4342 11.1481 40.2959 11.1742 40.1592 11.1904V9.8916C40.5596 9.77441 40.9372 9.62467 41.292 9.44238C41.6468 9.26009 41.9674 9.0599 42.2539 8.8418H43.1865Z" fill="white"/>
</svg>
