<svg width="68" height="56" viewBox="0 0 68 56" fill="none" xmlns="http://www.w3.org/2000/svg">
<mask id="mask0_13225_18662" style="mask-type:luminance" maskUnits="userSpaceOnUse" x="22" y="9" width="24" height="24">
<path d="M34 16C34.4142 16 34.75 16.3358 34.75 16.75V20.25H38.25C38.6642 20.25 39 20.5858 39 21C39 21.4142 38.6642 21.75 38.25 21.75H34.75V25.25C34.75 25.6642 34.4142 26 34 26C33.5858 26 33.25 25.6642 33.25 25.25V21.75H29.75C29.3358 21.75 29 21.4142 29 21C29 20.5858 29.3358 20.25 29.75 20.25H33.25V16.75C33.25 16.3358 33.5858 16 34 16ZM25 15.25C25 13.4551 26.4551 12 28.25 12H39.75C41.5449 12 43 13.4551 43 15.25V26.75C43 28.5449 41.5449 30 39.75 30H28.25C26.4551 30 25 28.5449 25 26.75V15.25ZM28.25 13.5C27.2835 13.5 26.5 14.2835 26.5 15.25V26.75C26.5 27.7165 27.2835 28.5 28.25 28.5H39.75C40.7165 28.5 41.5 27.7165 41.5 26.75V15.25C41.5 14.2835 40.7165 13.5 39.75 13.5H28.25Z" fill="white"/>
</mask>
<g mask="url(#mask0_13225_18662)">
<rect x="22" y="9" width="24" height="24" fill="#616161"/>
</g>
<path d="M29.1074 45H28.1992L27.457 43.0371H24.4883L23.79 45H22.877L25.5625 37.998H26.4121L29.1074 45ZM27.1885 42.2998L26.0898 39.3164C26.054 39.2188 26.0182 39.0625 25.9824 38.8477H25.9629C25.9303 39.0462 25.8929 39.2025 25.8506 39.3164L24.7617 42.2998H27.1885ZM30.8555 44.2773H30.8359V47.2998H30.0352V40H30.8359V40.8789H30.8555C31.2493 40.2148 31.8255 39.8828 32.584 39.8828C33.2285 39.8828 33.7314 40.1074 34.0928 40.5566C34.4541 41.0026 34.6348 41.6016 34.6348 42.3535C34.6348 43.1901 34.4313 43.8607 34.0244 44.3652C33.6175 44.8665 33.0609 45.1172 32.3545 45.1172C31.7067 45.1172 31.207 44.8372 30.8555 44.2773ZM30.8359 42.2607V42.959C30.8359 43.3724 30.9694 43.724 31.2363 44.0137C31.5065 44.3001 31.8483 44.4434 32.2617 44.4434C32.7467 44.4434 33.126 44.2578 33.3994 43.8867C33.6761 43.5156 33.8145 42.9997 33.8145 42.3389C33.8145 41.7822 33.6859 41.346 33.4287 41.0303C33.1715 40.7145 32.8232 40.5566 32.3838 40.5566C31.9183 40.5566 31.5439 40.7194 31.2607 41.0449C30.9775 41.3672 30.8359 41.7725 30.8359 42.2607ZM36.7344 44.2773H36.7148V47.2998H35.9141V40H36.7148V40.8789H36.7344C37.1283 40.2148 37.7044 39.8828 38.4629 39.8828C39.1074 39.8828 39.6104 40.1074 39.9717 40.5566C40.333 41.0026 40.5137 41.6016 40.5137 42.3535C40.5137 43.1901 40.3102 43.8607 39.9033 44.3652C39.4964 44.8665 38.9398 45.1172 38.2334 45.1172C37.5856 45.1172 37.0859 44.8372 36.7344 44.2773ZM36.7148 42.2607V42.959C36.7148 43.3724 36.8483 43.724 37.1152 44.0137C37.3854 44.3001 37.7272 44.4434 38.1406 44.4434C38.6257 44.4434 39.0049 44.2578 39.2783 43.8867C39.555 43.5156 39.6934 42.9997 39.6934 42.3389C39.6934 41.7822 39.5648 41.346 39.3076 41.0303C39.0505 40.7145 38.7021 40.5566 38.2627 40.5566C37.7972 40.5566 37.4229 40.7194 37.1396 41.0449C36.8564 41.3672 36.7148 41.7725 36.7148 42.2607ZM41.4902 44.8193V43.96C41.9264 44.2822 42.4066 44.4434 42.9307 44.4434C43.6338 44.4434 43.9854 44.209 43.9854 43.7402C43.9854 43.6068 43.9544 43.4945 43.8926 43.4033C43.834 43.3089 43.7526 43.2259 43.6484 43.1543C43.5475 43.0827 43.4271 43.0192 43.2871 42.9639C43.1504 42.9053 43.0023 42.8451 42.8428 42.7832C42.6214 42.6953 42.4261 42.6074 42.2568 42.5195C42.0908 42.4284 41.9508 42.3275 41.8369 42.2168C41.7262 42.1029 41.6416 41.9743 41.583 41.8311C41.5277 41.6878 41.5 41.5202 41.5 41.3281C41.5 41.0938 41.5537 40.887 41.6611 40.708C41.7686 40.5257 41.9118 40.3743 42.0908 40.2539C42.2699 40.1302 42.4733 40.0374 42.7012 39.9756C42.9323 39.9137 43.1699 39.8828 43.4141 39.8828C43.847 39.8828 44.2344 39.9577 44.5762 40.1074V40.918C44.2083 40.6771 43.7852 40.5566 43.3066 40.5566C43.1569 40.5566 43.0218 40.5745 42.9014 40.6104C42.7809 40.6429 42.6768 40.6901 42.5889 40.752C42.5042 40.8138 42.4375 40.8887 42.3887 40.9766C42.3431 41.0612 42.3203 41.1556 42.3203 41.2598C42.3203 41.39 42.3431 41.499 42.3887 41.5869C42.4375 41.6748 42.5075 41.7529 42.5986 41.8213C42.6898 41.8896 42.8005 41.9515 42.9307 42.0068C43.0609 42.0622 43.209 42.1224 43.375 42.1875C43.5964 42.2721 43.7949 42.36 43.9707 42.4512C44.1465 42.5391 44.2962 42.64 44.4199 42.7539C44.5436 42.8646 44.638 42.9932 44.7031 43.1396C44.7715 43.2861 44.8057 43.4603 44.8057 43.6621C44.8057 43.9095 44.7503 44.1243 44.6396 44.3066C44.5322 44.4889 44.3874 44.6403 44.2051 44.7607C44.0228 44.8812 43.8128 44.9707 43.5752 45.0293C43.3376 45.0879 43.0885 45.1172 42.8281 45.1172C42.3138 45.1172 41.8678 45.0179 41.4902 44.8193Z" fill="#616161"/>
</svg>
