<svg width="68" height="56" viewBox="0 0 68 56" fill="none" xmlns="http://www.w3.org/2000/svg">
<mask id="mask0_13225_18641" style="mask-type:luminance" maskUnits="userSpaceOnUse" x="22" y="9" width="24" height="24">
<path fill-rule="evenodd" clip-rule="evenodd" d="M34 11C39.5228 11 44 15.4772 44 21C44 26.5228 39.5228 31 34 31C28.4772 31 24 26.5228 24 21C24 15.4772 28.4772 11 34 11ZM40.0079 22.1052C39.8408 22.6622 39.607 23.2088 39.3036 23.7344C37.1962 27.3845 32.5288 28.6351 28.8787 26.5277C28.353 26.2242 27.877 25.8676 27.4536 25.4686C27.9985 26.6963 28.9232 27.7689 30.1756 28.492C33.3222 30.3087 37.3459 29.2306 39.1626 26.0839C39.8855 24.8317 40.1501 23.4406 40.0079 22.1052ZM33.3434 13.3351C32.0077 13.1932 30.6164 13.4577 29.3641 14.1807C26.2174 15.9975 25.1393 20.0211 26.956 23.1678C27.679 24.42 28.7514 25.3446 29.9791 25.8892C29.5802 25.466 29.2237 24.9902 28.9203 24.4647C26.8129 20.8145 28.0635 16.1471 31.7136 14.0397C32.2393 13.7362 32.7861 13.5023 33.3434 13.3351ZM34 16.7895C31.6746 16.7895 29.7895 18.6746 29.7895 21C29.7895 23.3254 31.6746 25.2105 34 25.2105C36.3254 25.2105 38.2105 23.3254 38.2105 21C38.2105 18.6746 36.3254 16.7895 34 16.7895ZM35.8421 14.1579C34.3962 14.1579 33.0592 14.6243 31.9738 15.4152C32.5397 15.2814 33.13 15.2105 33.7368 15.2105C37.9516 15.2105 41.3684 18.6273 41.3684 22.8421C41.3684 23.4491 41.2976 24.0396 41.1637 24.6058C41.9545 23.52 42.4211 22.1829 42.4211 20.7368C42.4211 17.1034 39.4756 14.1579 35.8421 14.1579Z" fill="white"/>
</mask>
<g mask="url(#mask0_13225_18641)">
<rect x="22" y="9" width="24" height="24" fill="#616161"/>
</g>
<path d="M21.1484 44.707C20.6309 44.9805 19.9863 45.1172 19.2148 45.1172C18.2188 45.1172 17.4212 44.7965 16.8223 44.1553C16.2233 43.514 15.9238 42.6725 15.9238 41.6309C15.9238 40.5111 16.2607 39.6061 16.9346 38.916C17.6084 38.2259 18.4629 37.8809 19.498 37.8809C20.1621 37.8809 20.7122 37.9769 21.1484 38.1689V39.043C20.6471 38.763 20.0938 38.623 19.4883 38.623C18.6842 38.623 18.0316 38.8916 17.5303 39.4287C17.0322 39.9658 16.7832 40.6836 16.7832 41.582C16.7832 42.4349 17.016 43.1152 17.4814 43.623C17.9502 44.1276 18.5638 44.3799 19.3223 44.3799C20.0254 44.3799 20.6341 44.2236 21.1484 43.9111V44.707ZM24.5566 45.1172C23.8177 45.1172 23.2269 44.8844 22.7842 44.4189C22.3447 43.9502 22.125 43.3301 22.125 42.5586C22.125 41.7188 22.3545 41.0628 22.8135 40.5908C23.2725 40.1188 23.8926 39.8828 24.6738 39.8828C25.4193 39.8828 26.0003 40.1123 26.417 40.5713C26.8369 41.0303 27.0469 41.6667 27.0469 42.4805C27.0469 43.278 26.8206 43.9176 26.3682 44.3994C25.9189 44.8779 25.3151 45.1172 24.5566 45.1172ZM24.6152 40.5566C24.1009 40.5566 23.694 40.7324 23.3945 41.084C23.0951 41.4323 22.9453 41.9141 22.9453 42.5293C22.9453 43.1217 23.0967 43.5889 23.3994 43.9307C23.7021 44.2725 24.1074 44.4434 24.6152 44.4434C25.1328 44.4434 25.5299 44.2757 25.8066 43.9404C26.0866 43.6051 26.2266 43.1283 26.2266 42.5098C26.2266 41.8848 26.0866 41.403 25.8066 41.0645C25.5299 40.7259 25.1328 40.5566 24.6152 40.5566ZM32.4766 45H31.6758V42.1484C31.6758 41.0872 31.2884 40.5566 30.5137 40.5566C30.1133 40.5566 29.7812 40.708 29.5176 41.0107C29.2572 41.3102 29.127 41.6895 29.127 42.1484V45H28.3262V40H29.127V40.8301H29.1465C29.5241 40.1986 30.071 39.8828 30.7871 39.8828C31.334 39.8828 31.7523 40.0602 32.042 40.415C32.3317 40.7666 32.4766 41.276 32.4766 41.9434V45ZM36.3096 44.9512C36.1208 45.0553 35.8717 45.1074 35.5625 45.1074C34.6868 45.1074 34.249 44.6191 34.249 43.6426V40.6836H33.3896V40H34.249V38.7793L35.0498 38.5205V40H36.3096V40.6836H35.0498V43.501C35.0498 43.8363 35.1068 44.0755 35.2207 44.2188C35.3346 44.362 35.5234 44.4336 35.7871 44.4336C35.9889 44.4336 36.1631 44.3783 36.3096 44.2676V44.9512ZM39.4688 45.1172C38.7298 45.1172 38.139 44.8844 37.6963 44.4189C37.2568 43.9502 37.0371 43.3301 37.0371 42.5586C37.0371 41.7188 37.2666 41.0628 37.7256 40.5908C38.1846 40.1188 38.8047 39.8828 39.5859 39.8828C40.3314 39.8828 40.9124 40.1123 41.3291 40.5713C41.749 41.0303 41.959 41.6667 41.959 42.4805C41.959 43.278 41.7327 43.9176 41.2803 44.3994C40.8311 44.8779 40.2272 45.1172 39.4688 45.1172ZM39.5273 40.5566C39.013 40.5566 38.6061 40.7324 38.3066 41.084C38.0072 41.4323 37.8574 41.9141 37.8574 42.5293C37.8574 43.1217 38.0088 43.5889 38.3115 43.9307C38.6143 44.2725 39.0195 44.4434 39.5273 44.4434C40.0449 44.4434 40.4421 44.2757 40.7188 43.9404C40.9987 43.6051 41.1387 43.1283 41.1387 42.5098C41.1387 41.8848 40.9987 41.403 40.7188 41.0645C40.4421 40.7259 40.0449 40.5566 39.5273 40.5566ZM42.9355 44.8193V43.96C43.3717 44.2822 43.8519 44.4434 44.376 44.4434C45.0791 44.4434 45.4307 44.209 45.4307 43.7402C45.4307 43.6068 45.3997 43.4945 45.3379 43.4033C45.2793 43.3089 45.1979 43.2259 45.0938 43.1543C44.9928 43.0827 44.8724 43.0192 44.7324 42.9639C44.5957 42.9053 44.4476 42.8451 44.2881 42.7832C44.0667 42.6953 43.8714 42.6074 43.7021 42.5195C43.5361 42.4284 43.3962 42.3275 43.2822 42.2168C43.1715 42.1029 43.0869 41.9743 43.0283 41.8311C42.973 41.6878 42.9453 41.5202 42.9453 41.3281C42.9453 41.0938 42.999 40.887 43.1064 40.708C43.2139 40.5257 43.3571 40.3743 43.5361 40.2539C43.7152 40.1302 43.9186 40.0374 44.1465 39.9756C44.3776 39.9137 44.6152 39.8828 44.8594 39.8828C45.2923 39.8828 45.6797 39.9577 46.0215 40.1074V40.918C45.6536 40.6771 45.2305 40.5566 44.752 40.5566C44.6022 40.5566 44.4671 40.5745 44.3467 40.6104C44.2262 40.6429 44.1221 40.6901 44.0342 40.752C43.9495 40.8138 43.8828 40.8887 43.834 40.9766C43.7884 41.0612 43.7656 41.1556 43.7656 41.2598C43.7656 41.39 43.7884 41.499 43.834 41.5869C43.8828 41.6748 43.9528 41.7529 44.0439 41.8213C44.1351 41.8896 44.2458 41.9515 44.376 42.0068C44.5062 42.0622 44.6543 42.1224 44.8203 42.1875C45.0417 42.2721 45.2402 42.36 45.416 42.4512C45.5918 42.5391 45.7415 42.64 45.8652 42.7539C45.9889 42.8646 46.0833 42.9932 46.1484 43.1396C46.2168 43.2861 46.251 43.4603 46.251 43.6621C46.251 43.9095 46.1956 44.1243 46.085 44.3066C45.9775 44.4889 45.8327 44.6403 45.6504 44.7607C45.4681 44.8812 45.2581 44.9707 45.0205 45.0293C44.7829 45.0879 44.5339 45.1172 44.2734 45.1172C43.7591 45.1172 43.3132 45.0179 42.9355 44.8193ZM49.5762 45.1172C48.8372 45.1172 48.2464 44.8844 47.8037 44.4189C47.3643 43.9502 47.1445 43.3301 47.1445 42.5586C47.1445 41.7188 47.374 41.0628 47.833 40.5908C48.292 40.1188 48.9121 39.8828 49.6934 39.8828C50.4388 39.8828 51.0199 40.1123 51.4365 40.5713C51.8564 41.0303 52.0664 41.6667 52.0664 42.4805C52.0664 43.278 51.8402 43.9176 51.3877 44.3994C50.9385 44.8779 50.3346 45.1172 49.5762 45.1172ZM49.6348 40.5566C49.1204 40.5566 48.7135 40.7324 48.4141 41.084C48.1146 41.4323 47.9648 41.9141 47.9648 42.5293C47.9648 43.1217 48.1162 43.5889 48.4189 43.9307C48.7217 44.2725 49.127 44.4434 49.6348 44.4434C50.1523 44.4434 50.5495 44.2757 50.8262 43.9404C51.1061 43.6051 51.2461 43.1283 51.2461 42.5098C51.2461 41.8848 51.1061 41.403 50.8262 41.0645C50.5495 40.7259 50.1523 40.5566 49.6348 40.5566Z" fill="#616161"/>
</svg>
