<svg width="68" height="56" viewBox="0 0 68 56" fill="none" xmlns="http://www.w3.org/2000/svg">
<mask id="mask0_13225_18611" style="mask-type:luminance" maskUnits="userSpaceOnUse" x="22" y="9" width="24" height="24">
<path d="M39.75 12C41.5449 12 43 13.4551 43 15.25V26.75C43 28.5449 41.5449 30 39.75 30H28.25C26.4551 30 25 28.5449 25 26.75V15.25C25 13.4551 26.4551 12 28.25 12H39.75ZM41.5 17.5H26.5V26.75C26.5 27.7165 27.2835 28.5 28.25 28.5H39.75C40.7165 28.5 41.5 27.7165 41.5 26.75V17.5ZM29.75 23.5C30.4404 23.5 31 24.0596 31 24.75C31 25.4404 30.4404 26 29.75 26C29.0596 26 28.5 25.4404 28.5 24.75C28.5 24.0596 29.0596 23.5 29.75 23.5ZM34 23.5C34.6904 23.5 35.25 24.0596 35.25 24.75C35.25 25.4404 34.6904 26 34 26C33.3096 26 32.75 25.4404 32.75 24.75C32.75 24.0596 33.3096 23.5 34 23.5ZM29.75 19.5C30.4404 19.5 31 20.0596 31 20.75C31 21.4404 30.4404 22 29.75 22C29.0596 22 28.5 21.4404 28.5 20.75C28.5 20.0596 29.0596 19.5 29.75 19.5ZM34 19.5C34.6904 19.5 35.25 20.0596 35.25 20.75C35.25 21.4404 34.6904 22 34 22C33.3096 22 32.75 21.4404 32.75 20.75C32.75 20.0596 33.3096 19.5 34 19.5ZM38.25 19.5C38.9404 19.5 39.5 20.0596 39.5 20.75C39.5 21.4404 38.9404 22 38.25 22C37.5596 22 37 21.4404 37 20.75C37 20.0596 37.5596 19.5 38.25 19.5ZM39.75 13.5H28.25C27.2835 13.5 26.5 14.2835 26.5 15.25V16H41.5V15.25C41.5 14.2835 40.7165 13.5 39.75 13.5Z" fill="white"/>
</mask>
<g mask="url(#mask0_13225_18611)">
<rect x="22" y="9" width="24" height="24" fill="#616161"/>
</g>
<path d="M20.1572 44.707C19.6396 44.9805 18.9951 45.1172 18.2236 45.1172C17.2275 45.1172 16.43 44.7965 15.8311 44.1553C15.2321 43.514 14.9326 42.6725 14.9326 41.6309C14.9326 40.5111 15.2695 39.6061 15.9434 38.916C16.6172 38.2259 17.4717 37.8809 18.5068 37.8809C19.1709 37.8809 19.721 37.9769 20.1572 38.1689V39.043C19.6559 38.763 19.1025 38.623 18.4971 38.623C17.693 38.623 17.0404 38.8916 16.5391 39.4287C16.041 39.9658 15.792 40.6836 15.792 41.582C15.792 42.4349 16.0247 43.1152 16.4902 43.623C16.959 44.1276 17.5726 44.3799 18.3311 44.3799C19.0342 44.3799 19.6429 44.2236 20.1572 43.9111V44.707ZM25.0547 45H24.2539V44.2188H24.2344C23.8861 44.8177 23.3734 45.1172 22.6963 45.1172C22.1982 45.1172 21.8076 44.9854 21.5244 44.7217C21.2445 44.458 21.1045 44.1081 21.1045 43.6719C21.1045 42.7376 21.6546 42.194 22.7549 42.041L24.2539 41.8311C24.2539 40.9814 23.9105 40.5566 23.2236 40.5566C22.6214 40.5566 22.0778 40.7617 21.5928 41.1719V40.3516C22.0843 40.0391 22.6507 39.8828 23.292 39.8828C24.4671 39.8828 25.0547 40.5046 25.0547 41.748V45ZM24.2539 42.4707L23.0479 42.6367C22.6768 42.6888 22.3968 42.7816 22.208 42.915C22.0192 43.0452 21.9248 43.278 21.9248 43.6133C21.9248 43.8574 22.0111 44.0576 22.1836 44.2139C22.3594 44.3669 22.5921 44.4434 22.8818 44.4434C23.279 44.4434 23.6061 44.305 23.8633 44.0283C24.1237 43.7484 24.2539 43.3952 24.2539 42.9688V42.4707ZM27.3643 45H26.5635V37.5977H27.3643V45ZM33.0039 42.7002H29.4736C29.4867 43.2568 29.6364 43.6865 29.9229 43.9893C30.2093 44.292 30.6032 44.4434 31.1045 44.4434C31.6676 44.4434 32.1852 44.2578 32.6572 43.8867V44.6387C32.2178 44.9577 31.6367 45.1172 30.9141 45.1172C30.2077 45.1172 29.6527 44.891 29.249 44.4385C28.8454 43.9827 28.6436 43.3431 28.6436 42.5195C28.6436 41.7415 28.8633 41.1084 29.3027 40.6201C29.7454 40.1286 30.2939 39.8828 30.9482 39.8828C31.6025 39.8828 32.1087 40.0944 32.4668 40.5176C32.8249 40.9408 33.0039 41.5283 33.0039 42.2803V42.7002ZM32.1836 42.0215C32.1803 41.5592 32.068 41.1995 31.8467 40.9424C31.6286 40.6852 31.3242 40.5566 30.9336 40.5566C30.556 40.5566 30.2354 40.6917 29.9717 40.9619C29.708 41.2321 29.5452 41.5853 29.4834 42.0215H32.1836ZM38.3701 45H37.5693V42.1484C37.5693 41.0872 37.182 40.5566 36.4072 40.5566C36.0068 40.5566 35.6748 40.708 35.4111 41.0107C35.1507 41.3102 35.0205 41.6895 35.0205 42.1484V45H34.2197V40H35.0205V40.8301H35.04C35.4176 40.1986 35.9645 39.8828 36.6807 39.8828C37.2275 39.8828 37.6458 40.0602 37.9355 40.415C38.2253 40.7666 38.3701 41.276 38.3701 41.9434V45ZM44.1514 45H43.3506V44.1504H43.3311C42.96 44.7949 42.387 45.1172 41.6123 45.1172C40.984 45.1172 40.4811 44.8942 40.1035 44.4482C39.7292 43.999 39.542 43.3887 39.542 42.6172C39.542 41.7904 39.7503 41.1279 40.167 40.6299C40.5837 40.1318 41.1387 39.8828 41.832 39.8828C42.5189 39.8828 43.0186 40.153 43.3311 40.6934H43.3506V37.5977H44.1514V45ZM43.3506 42.7393V42.002C43.3506 41.5983 43.2171 41.2565 42.9502 40.9766C42.6833 40.6966 42.3447 40.5566 41.9346 40.5566C41.4463 40.5566 41.0622 40.7357 40.7822 41.0938C40.5023 41.4518 40.3623 41.9466 40.3623 42.5781C40.3623 43.1543 40.4958 43.61 40.7627 43.9453C41.0329 44.2773 41.3942 44.4434 41.8467 44.4434C42.2926 44.4434 42.654 44.2822 42.9307 43.96C43.2106 43.6377 43.3506 43.2308 43.3506 42.7393ZM49.3516 45H48.5508V44.2188H48.5312C48.1829 44.8177 47.6702 45.1172 46.9932 45.1172C46.4951 45.1172 46.1045 44.9854 45.8213 44.7217C45.5413 44.458 45.4014 44.1081 45.4014 43.6719C45.4014 42.7376 45.9515 42.194 47.0518 42.041L48.5508 41.8311C48.5508 40.9814 48.2074 40.5566 47.5205 40.5566C46.9183 40.5566 46.3747 40.7617 45.8896 41.1719V40.3516C46.3812 40.0391 46.9476 39.8828 47.5889 39.8828C48.764 39.8828 49.3516 40.5046 49.3516 41.748V45ZM48.5508 42.4707L47.3447 42.6367C46.9736 42.6888 46.6937 42.7816 46.5049 42.915C46.3161 43.0452 46.2217 43.278 46.2217 43.6133C46.2217 43.8574 46.3079 44.0576 46.4805 44.2139C46.6562 44.3669 46.889 44.4434 47.1787 44.4434C47.5758 44.4434 47.903 44.305 48.1602 44.0283C48.4206 43.7484 48.5508 43.3952 48.5508 42.9688V42.4707ZM53.4678 40.8105C53.3278 40.7031 53.126 40.6494 52.8623 40.6494C52.5205 40.6494 52.234 40.8105 52.0029 41.1328C51.7751 41.4551 51.6611 41.8945 51.6611 42.4512V45H50.8604V40H51.6611V41.0303H51.6807C51.7946 40.6787 51.9688 40.4053 52.2031 40.21C52.4375 40.0114 52.6995 39.9121 52.9893 39.9121C53.1976 39.9121 53.3571 39.9349 53.4678 39.9805V40.8105Z" fill="#616161"/>
</svg>
