<svg width="68" height="56" viewBox="0 0 68 56" fill="none" xmlns="http://www.w3.org/2000/svg">
<mask id="mask0_13225_18652" style="mask-type:luminance" maskUnits="userSpaceOnUse" x="22" y="16" width="24" height="24">
<path d="M29.75 28C29.75 28.9665 28.9665 29.75 28 29.75C27.0335 29.75 26.25 28.9665 26.25 28C26.25 27.0335 27.0335 26.25 28 26.25C28.9665 26.25 29.75 27.0335 29.75 28ZM35.75 28C35.75 28.9665 34.9665 29.75 34 29.75C33.0335 29.75 32.25 28.9665 32.25 28C32.25 27.0335 33.0335 26.25 34 26.25C34.9665 26.25 35.75 27.0335 35.75 28ZM40 29.75C40.9665 29.75 41.75 28.9665 41.75 28C41.75 27.0335 40.9665 26.25 40 26.25C39.0335 26.25 38.25 27.0335 38.25 28C38.25 28.9665 39.0335 29.75 40 29.75Z" fill="white"/>
</mask>
<g mask="url(#mask0_13225_18652)">
<rect x="22" y="16" width="24" height="24" fill="#616161"/>
</g>
</svg>
