<svg width="28" height="38" viewBox="0 0 28 38" fill="none" xmlns="http://www.w3.org/2000/svg">
<mask id="mask0_13244_43636" style="mask-type:luminance" maskUnits="userSpaceOnUse" x="2" y="0" width="24" height="24">
<path d="M16.754 10C17.7205 10 18.504 10.7835 18.504 11.75V16.499C18.504 18.9848 16.4888 21 14.003 21C11.5171 21 9.50193 18.9848 9.50193 16.499V11.75C9.50193 10.7835 10.2854 10 11.2519 10H16.754ZM9.13128 9.99906C8.78183 10.4218 8.55636 10.9508 8.51057 11.5304L8.50193 11.75V16.499C8.50193 17.3456 8.69319 18.1476 9.03487 18.864C8.70577 18.953 8.35899 19 8.00124 19C5.79142 19 4 17.2086 4 14.9988V11.75C4 10.8318 4.70711 10.0788 5.60647 10.0058L5.75 10L9.13128 9.99906ZM18.8747 9.99906L22.25 10C23.2165 10 24 10.7835 24 11.75V15C24 17.2091 22.2091 19 20 19C19.6436 19 19.298 18.9534 18.9691 18.8659C19.2697 18.238 19.4538 17.5452 19.4951 16.8144L19.504 16.499V11.75C19.504 11.0847 19.2678 10.4747 18.8747 9.99906ZM14 3C15.6569 3 17 4.34315 17 6C17 7.65685 15.6569 9 14 9C12.3431 9 11 7.65685 11 6C11 4.34315 12.3431 3 14 3ZM20.5 4C21.8807 4 23 5.11929 23 6.5C23 7.88071 21.8807 9 20.5 9C19.1193 9 18 7.88071 18 6.5C18 5.11929 19.1193 4 20.5 4ZM7.5 4C8.88071 4 10 5.11929 10 6.5C10 7.88071 8.88071 9 7.5 9C6.11929 9 5 7.88071 5 6.5C5 5.11929 6.11929 4 7.5 4Z" fill="white"/>
</mask>
<g mask="url(#mask0_13244_43636)">
<rect x="2" width="24" height="24" fill="#5B5FC7"/>
</g>
<path d="M5.33301 29.7402H3.31152V36H2.49121V29.7402H0.474609V28.998H5.33301V29.7402ZM9.37109 33.7002H5.84082C5.85384 34.2568 6.00358 34.6865 6.29004 34.9893C6.5765 35.292 6.97038 35.4434 7.47168 35.4434C8.03483 35.4434 8.55241 35.2578 9.02441 34.8867V35.6387C8.58496 35.9577 8.00391 36.1172 7.28125 36.1172C6.57487 36.1172 6.01986 35.891 5.61621 35.4385C5.21257 34.9827 5.01074 34.3431 5.01074 33.5195C5.01074 32.7415 5.23047 32.1084 5.66992 31.6201C6.11263 31.1286 6.66113 30.8828 7.31543 30.8828C7.96973 30.8828 8.47591 31.0944 8.83398 31.5176C9.19206 31.9408 9.37109 32.5283 9.37109 33.2803V33.7002ZM8.55078 33.0215C8.54753 32.5592 8.43522 32.1995 8.21387 31.9424C7.99577 31.6852 7.69141 31.5566 7.30078 31.5566C6.92318 31.5566 6.60254 31.6917 6.33887 31.9619C6.0752 32.2321 5.91243 32.5853 5.85059 33.0215H8.55078ZM14.166 36H13.3652V35.2188H13.3457C12.9974 35.8177 12.4847 36.1172 11.8076 36.1172C11.3096 36.1172 10.9189 35.9854 10.6357 35.7217C10.3558 35.458 10.2158 35.1081 10.2158 34.6719C10.2158 33.7376 10.766 33.194 11.8662 33.041L13.3652 32.8311C13.3652 31.9814 13.0218 31.5566 12.335 31.5566C11.7327 31.5566 11.1891 31.7617 10.7041 32.1719V31.3516C11.1956 31.0391 11.762 30.8828 12.4033 30.8828C13.5785 30.8828 14.166 31.5046 14.166 32.748V36ZM13.3652 33.4707L12.1592 33.6367C11.7881 33.6888 11.5081 33.7816 11.3193 33.915C11.1305 34.0452 11.0361 34.278 11.0361 34.6133C11.0361 34.8574 11.1224 35.0576 11.2949 35.2139C11.4707 35.3669 11.7035 35.4434 11.9932 35.4434C12.3903 35.4434 12.7174 35.305 12.9746 35.0283C13.235 34.7484 13.3652 34.3952 13.3652 33.9688V33.4707ZM22.7744 36H21.9736V33.1289C21.9736 32.5755 21.8874 32.1751 21.7148 31.9277C21.5456 31.6803 21.2591 31.5566 20.8555 31.5566C20.5137 31.5566 20.2223 31.7129 19.9814 32.0254C19.7438 32.3379 19.625 32.7122 19.625 33.1484V36H18.8242V33.0312C18.8242 32.0482 18.445 31.5566 17.6865 31.5566C17.335 31.5566 17.0452 31.7048 16.8174 32.001C16.5895 32.2939 16.4756 32.6764 16.4756 33.1484V36H15.6748V31H16.4756V31.791H16.4951C16.8499 31.1855 17.3675 30.8828 18.0479 30.8828C18.3896 30.8828 18.6875 30.9788 18.9414 31.1709C19.1953 31.3597 19.3695 31.6087 19.4639 31.918C19.835 31.2279 20.3883 30.8828 21.124 30.8828C22.2243 30.8828 22.7744 31.5615 22.7744 32.9189V36ZM23.9854 35.8193V34.96C24.4215 35.2822 24.9017 35.4434 25.4258 35.4434C26.1289 35.4434 26.4805 35.209 26.4805 34.7402C26.4805 34.6068 26.4495 34.4945 26.3877 34.4033C26.3291 34.3089 26.2477 34.2259 26.1436 34.1543C26.0426 34.0827 25.9222 34.0192 25.7822 33.9639C25.6455 33.9053 25.4974 33.8451 25.3379 33.7832C25.1165 33.6953 24.9212 33.6074 24.752 33.5195C24.5859 33.4284 24.446 33.3275 24.332 33.2168C24.2214 33.1029 24.1367 32.9743 24.0781 32.8311C24.0228 32.6878 23.9951 32.5202 23.9951 32.3281C23.9951 32.0938 24.0488 31.887 24.1562 31.708C24.2637 31.5257 24.4069 31.3743 24.5859 31.2539C24.765 31.1302 24.9684 31.0374 25.1963 30.9756C25.4274 30.9137 25.665 30.8828 25.9092 30.8828C26.3421 30.8828 26.7295 30.9577 27.0713 31.1074V31.918C26.7035 31.6771 26.2803 31.5566 25.8018 31.5566C25.652 31.5566 25.5169 31.5745 25.3965 31.6104C25.276 31.6429 25.1719 31.6901 25.084 31.752C24.9993 31.8138 24.9326 31.8887 24.8838 31.9766C24.8382 32.0612 24.8154 32.1556 24.8154 32.2598C24.8154 32.39 24.8382 32.499 24.8838 32.5869C24.9326 32.6748 25.0026 32.7529 25.0938 32.8213C25.1849 32.8896 25.2956 32.9515 25.4258 33.0068C25.556 33.0622 25.7041 33.1224 25.8701 33.1875C26.0915 33.2721 26.29 33.36 26.4658 33.4512C26.6416 33.5391 26.7913 33.64 26.915 33.7539C27.0387 33.8646 27.1331 33.9932 27.1982 34.1396C27.2666 34.2861 27.3008 34.4603 27.3008 34.6621C27.3008 34.9095 27.2454 35.1243 27.1348 35.3066C27.0273 35.4889 26.8825 35.6403 26.7002 35.7607C26.5179 35.8812 26.3079 35.9707 26.0703 36.0293C25.8327 36.0879 25.5837 36.1172 25.3232 36.1172C24.8089 36.1172 24.363 36.0179 23.9854 35.8193Z" fill="#5B5FC7"/>
</svg>
