<svg width="68" height="56" viewBox="0 0 68 56" fill="none" xmlns="http://www.w3.org/2000/svg">
<rect x="2" y="4" width="2" height="48" rx="1" fill="#5B5FC7"/>
<mask id="mask0_13225_18579" style="mask-type:luminance" maskUnits="userSpaceOnUse" x="22" y="9" width="24" height="24">
<path d="M31.0417 28.003H36.9583C36.7196 29.4211 35.486 30.5015 34 30.5015C32.514 30.5015 31.2804 29.4211 31.0417 28.003ZM34 11.0039C38.1421 11.0039 41.5 14.3618 41.5 18.5039V22.5024L42.9183 25.6625C42.9732 25.7848 43.0016 25.9174 43.0016 26.0515C43.0016 26.5762 42.5763 27.0015 42.0516 27.0015H25.9522C25.8184 27.0015 25.6861 26.9733 25.564 26.9186C25.0851 26.7042 24.8707 26.1422 25.0851 25.6633L26.5 22.5028L26.5001 18.491L26.5045 18.2411C26.6436 14.2103 29.9559 11.0039 34 11.0039Z" fill="white"/>
</mask>
<g mask="url(#mask0_13225_18579)">
<rect x="22" y="9" width="24" height="24" fill="#5B5FC7"/>
</g>
<path d="M24.1709 45H23.2627L22.5205 43.0371H19.5518L18.8535 45H17.9404L20.626 37.998H21.4756L24.1709 45ZM22.252 42.2998L21.1533 39.3164C21.1175 39.2188 21.0817 39.0625 21.0459 38.8477H21.0264C20.9938 39.0462 20.9564 39.2025 20.9141 39.3164L19.8252 42.2998H22.252ZM28.5068 44.7705C28.1227 45.0016 27.667 45.1172 27.1396 45.1172C26.4268 45.1172 25.8506 44.8861 25.4111 44.4238C24.9749 43.9583 24.7568 43.3561 24.7568 42.6172C24.7568 41.7936 24.9928 41.1328 25.4648 40.6348C25.9368 40.1335 26.5667 39.8828 27.3545 39.8828C27.7939 39.8828 28.1813 39.9642 28.5166 40.127V40.9473C28.1455 40.6868 27.7484 40.5566 27.3252 40.5566C26.8141 40.5566 26.3942 40.7406 26.0654 41.1084C25.7399 41.473 25.5771 41.9531 25.5771 42.5488C25.5771 43.1348 25.7301 43.597 26.0361 43.9355C26.3454 44.2741 26.7588 44.4434 27.2764 44.4434C27.7126 44.4434 28.1227 44.2985 28.5068 44.0088V44.7705ZM32.0371 44.9512C31.8483 45.0553 31.5993 45.1074 31.29 45.1074C30.4144 45.1074 29.9766 44.6191 29.9766 43.6426V40.6836H29.1172V40H29.9766V38.7793L30.7773 38.5205V40H32.0371V40.6836H30.7773V43.501C30.7773 43.8363 30.8343 44.0755 30.9482 44.2188C31.0622 44.362 31.251 44.4336 31.5146 44.4336C31.7165 44.4336 31.8906 44.3783 32.0371 44.2676V44.9512ZM33.5166 38.7305C33.3734 38.7305 33.2513 38.6816 33.1504 38.584C33.0495 38.4863 32.999 38.3626 32.999 38.2129C32.999 38.0632 33.0495 37.9395 33.1504 37.8418C33.2513 37.7409 33.3734 37.6904 33.5166 37.6904C33.6631 37.6904 33.7868 37.7409 33.8877 37.8418C33.9919 37.9395 34.0439 38.0632 34.0439 38.2129C34.0439 38.3561 33.9919 38.4782 33.8877 38.5791C33.7868 38.68 33.6631 38.7305 33.5166 38.7305ZM33.9072 45H33.1064V40H33.9072V45ZM39.459 40L37.4668 45H36.6807L34.7861 40H35.665L36.9346 43.6328C37.029 43.8997 37.0876 44.1325 37.1104 44.3311H37.1299C37.1624 44.0804 37.2145 43.8542 37.2861 43.6523L38.6143 40H39.459ZM40.7334 38.7305C40.5902 38.7305 40.4681 38.6816 40.3672 38.584C40.2663 38.4863 40.2158 38.3626 40.2158 38.2129C40.2158 38.0632 40.2663 37.9395 40.3672 37.8418C40.4681 37.7409 40.5902 37.6904 40.7334 37.6904C40.8799 37.6904 41.0036 37.7409 41.1045 37.8418C41.2087 37.9395 41.2607 38.0632 41.2607 38.2129C41.2607 38.3561 41.2087 38.4782 41.1045 38.5791C41.0036 38.68 40.8799 38.7305 40.7334 38.7305ZM41.124 45H40.3232V40H41.124V45ZM45.0645 44.9512C44.8757 45.0553 44.6266 45.1074 44.3174 45.1074C43.4417 45.1074 43.0039 44.6191 43.0039 43.6426V40.6836H42.1445V40H43.0039V38.7793L43.8047 38.5205V40H45.0645V40.6836H43.8047V43.501C43.8047 43.8363 43.8617 44.0755 43.9756 44.2188C44.0895 44.362 44.2783 44.4336 44.542 44.4336C44.7438 44.4336 44.918 44.3783 45.0645 44.2676V44.9512ZM50.1133 40L47.8135 45.8008C47.4033 46.8359 46.8271 47.3535 46.085 47.3535C45.8766 47.3535 45.7025 47.3324 45.5625 47.29V46.5723C45.735 46.6309 45.8929 46.6602 46.0361 46.6602C46.4398 46.6602 46.7425 46.4193 46.9443 45.9375L47.3447 44.9902L45.3916 40H46.2803L47.6328 43.8477C47.6491 43.8965 47.6833 44.0234 47.7354 44.2285H47.7646C47.7809 44.1504 47.8135 44.0267 47.8623 43.8574L49.2832 40H50.1133Z" fill="#5B5FC7"/>
</svg>
